<svg xmlns="http://www.w3.org/2000/svg" width="214.684" height="214.637" viewBox="0 0 214.684 214.637">
  <path d="M107.291,84.113a55.03,55.03,0,1,0,55.03,55.03A54.943,54.943,0,0,0,107.291,84.113Zm0,90.807a35.777,35.777,0,1,1,35.777-35.777,35.842,35.842,0,0,1-35.777,35.777Zm70.117-93.058a12.836,12.836,0,1,1-12.836-12.836A12.806,12.806,0,0,1,177.408,81.862Zm36.447,13.027c-.814-17.194-4.742-32.424-17.338-44.972-12.548-12.548-27.778-16.476-44.972-17.338-17.721-1.006-70.835-1.006-88.556,0-17.146.814-32.376,4.741-44.972,17.29S1.541,77.647.679,94.841c-1.006,17.721-1.006,70.835,0,88.556.814,17.194,4.741,32.424,17.338,44.972S45.8,244.845,62.989,245.707c17.721,1.006,70.835,1.006,88.556,0,17.194-.814,32.424-4.741,44.972-17.338,12.548-12.548,16.475-27.778,17.338-44.972,1.006-17.721,1.006-70.787,0-88.508ZM190.962,202.411a36.221,36.221,0,0,1-20.4,20.4c-14.129,5.6-47.654,4.31-63.268,4.31s-49.187,1.245-63.268-4.31a36.221,36.221,0,0,1-20.4-20.4c-5.6-14.129-4.31-47.654-4.31-63.268s-1.245-49.187,4.31-63.268a36.221,36.221,0,0,1,20.4-20.4c14.129-5.6,47.654-4.31,63.268-4.31s49.187-1.245,63.268,4.31a36.221,36.221,0,0,1,20.4,20.4c5.6,14.129,4.31,47.654,4.31,63.268S196.565,188.33,190.962,202.411Z" transform="translate(0.075 -31.825)"/>
</svg>
