<svg xmlns="http://www.w3.org/2000/svg" width="87.816" height="36" viewBox="0 0 87.816 36">
  <g data-name="Group 18" transform="translate(-30 -26)">
    <text transform="translate(30 53)" fill="#fff" font-size="26" font-family="Poppins-SemiBold, Poppins" font-weight="600"><tspan x="0" y="0">Litrat</tspan></text>
    <g transform="translate(99.866 35.739)">
      <path data-name="Path 8" d="M236.534,9.507h.678a8.973,8.973,0,0,0-6.279-4.73.475.475,0,0,1-.072.2l-.207.359-2.409,4.173h8.288Zm0,0" transform="translate(-220.244 -4.61)" fill="#b6f24e"/>
      <path data-name="Path 9" d="M.8,124.5h5.13l-1.484-2.585-2.657-4.595-.342-.583A8.972,8.972,0,0,0,0,121.617a8.868,8.868,0,0,0,.5,2.959.628.628,0,0,1,.3-.079Zm0,0" transform="translate(0 -112.642)" fill="#f56666"/>
      <path data-name="Path 10" d="M28.667,372.266h-.678A8.974,8.974,0,0,0,34.307,377a.586.586,0,0,1,.08-.3l.152-.272h.008l2.4-4.173H28.667Zm0,0" transform="translate(-27.007 -359.214)" fill="#ff5dd9"/>
      <path data-name="Path 11" d="M62.722,3.607l2.41,4.173,1.452-2.513.056-.1L69.272.6l.335-.59C69.455,0,69.3,0,69.144,0A8.9,8.9,0,0,0,62.355,3.12a.76.76,0,0,1,.207.215Zm0,0" transform="translate(-60.169 -0.001)" fill="#f6f63e"/>
      <path data-name="Path 12" d="M249.827,294.581a.489.489,0,0,1-.215-.207l-.159-.271-2.409-4.18-1.452,2.521-.072.135L242.9,297.11l-.343.59c.16,0,.312.008.471.008A8.93,8.93,0,0,0,249.827,294.581Zm0,0" transform="translate(-234.055 -279.759)" fill="#7b4cee"/>
      <path data-name="Path 13" d="M348.04,171.665h-5.13l1.484,2.585,2.656,4.595.343.583a8.972,8.972,0,0,0,1.444-4.882,8.865,8.865,0,0,0-.5-2.959.628.628,0,0,1-.3.079Zm0,0" transform="translate(-330.888 -165.57)" fill="#42e9cd"/>
    </g>
  </g>
</svg>
