<svg xmlns="http://www.w3.org/2000/svg" width="307.704" height="307.748" viewBox="0 0 307.704 307.748">
  <path id="search-plus" d="M182.708,115.395v19.232a7.233,7.233,0,0,1-7.212,7.212H141.839V175.5a7.233,7.233,0,0,1-7.212,7.212H115.395a7.233,7.233,0,0,1-7.212-7.212V141.839H74.526a7.233,7.233,0,0,1-7.212-7.212V115.395a7.233,7.233,0,0,1,7.212-7.212h33.657V74.526a7.233,7.233,0,0,1,7.212-7.212h19.232a7.233,7.233,0,0,1,7.212,7.212v33.657H175.5A7.233,7.233,0,0,1,182.708,115.395ZM303.512,286.5,286.5,303.512a14.365,14.365,0,0,1-20.374,0l-59.981-59.921a14.414,14.414,0,0,1-4.207-10.217v-9.8a124.954,124.954,0,1,1,21.636-21.636h9.8a14.414,14.414,0,0,1,10.217,4.207l59.921,59.921A14.547,14.547,0,0,1,303.512,286.5ZM206.749,125.011a81.738,81.738,0,1,0-81.738,81.738A81.669,81.669,0,0,0,206.749,125.011Z"/>
</svg>
